# xmcd CD database file
#
# Track frame offsets:
#	182
#	16220
#	29467
#	45062
#	65855
#	82965
#	92282
#	109997
#	134302
#	145540
#	159117
#	177737
#	191357
#	202230
#	220702
#	232807
#
# Disc length: 3342 seconds
#
# Revision: 6
# Processed by: cddbd v1.5.2PL0 Copyright (c) Steve Scherf et al.
# Submitted via: CDex 1.51
#
DISCID=cb0d0c10
DTITLE=Fleetwood Mac - The Original Fleetwood Mac
DYEAR=2000
DGENRE=Blues Rock
TTITLE0=Drifting
TTITLE1=Leaving Town Blues
TTITLE2=Watch Out
TTITLE3=A Fool No More
TTITLE4=Mean Old Fireman
TTITLE5=Can't Afford To Do It
TTITLE6=Fleetwood Mac
TTITLE7=Worried Dream
TTITLE8=Love That Woman
TTITLE9=Allow Me One More Show
TTITLE10=First Train Home
TTITLE11=Rambling Pony No.2
TTITLE12=Mighty Cold
TTITLE13=Jumping At Shadows (live)
TTITLE14=Somebody's Gonna Get (Their Head Kicked In Tonite
TTITLE15=Man Of Action
EXTD=YEAR: 2000
EXTT0=
EXTT1=
EXTT2=
EXTT3=
EXTT4=
EXTT5=
EXTT6=
EXTT7=
EXTT8=
EXTT9=
EXTT10=
EXTT11=
EXTT12=
EXTT13=
EXTT14=
EXTT15=
PLAYORDER=
